<?xml version="1.0" standalone="no"?>
<!DOCTYPE svg PUBLIC "-//W3C//DTD SVG 20010904//EN"
 "http://www.w3.org/TR/2001/REC-SVG-20010904/DTD/svg10.dtd">
<svg version="1.0" xmlns="http://www.w3.org/2000/svg"
 width="312.000000pt" height="312.000000pt" viewBox="0 0 312.000000 312.000000"
 preserveAspectRatio="xMidYMid meet">
<metadata>
Created by potrace 1.11, written by Peter Selinger 2001-2013
</metadata>
<g transform="translate(0.000000,312.000000) scale(0.100000,-0.100000)"
fill="#000000" stroke="none">
<path d="M1440 2641 c-90 -21 -184 -78 -267 -160 -28 -28 -56 -51 -62 -51 -5
0 -32 13 -58 28 -104 60 -209 76 -312 46 -92 -27 -110 -38 -174 -101 -203
-201 -131 -528 140 -641 68 -29 210 -31 262 -4 55 27 59 43 27 103 -35 69 -44
130 -21 152 9 9 20 17 24 17 16 0 38 -36 60 -95 39 -107 141 -222 246 -277 59
-31 178 -58 255 -58 74 0 195 26 250 55 108 55 208 168 250 282 25 69 49 97
74 87 37 -14 33 -67 -11 -160 -30 -64 -26 -79 28 -106 25 -13 58 -18 124 -18
82 0 97 3 160 34 69 33 154 109 186 166 88 161 54 351 -88 480 -49 45 -70 57
-146 80 -108 34 -212 20 -320 -42 -26 -15 -52 -28 -58 -28 -5 0 -43 31 -84 70
-51 46 -100 81 -152 106 -71 33 -84 36 -187 39 -61 2 -127 0 -146 -4z"/>
<path d="M1043 1695 c-26 -18 -135 -45 -184 -45 -52 0 -70 -24 -58 -75 20 -87
59 -309 59 -336 0 -16 9 -38 20 -49 20 -20 33 -20 676 -20 423 0 662 4 674 10
11 6 22 26 25 48 12 75 57 318 65 349 11 46 -10 73 -58 73 -50 0 -159 27 -185
45 -30 21 -48 19 -77 -8 -110 -99 -208 -143 -352 -159 -200 -21 -380 28 -505
137 -56 49 -68 53 -100 30z"/>
<path d="M882 1068 c-20 -20 -16 -392 4 -452 24 -71 87 -132 144 -141 25 -3
280 -5 567 -3 l521 3 39 31 c21 17 49 53 63 80 24 46 25 57 28 257 2 149 0
213 -9 223 -10 12 -114 14 -678 14 -505 0 -670 -3 -679 -12z"/>
</g>
</svg>
